<?plantuml 1.2026.2beta3?><svg xmlns="http://www.w3.org/2000/svg" xmlns:xlink="http://www.w3.org/1999/xlink" contentStyleType="text/css" data-diagram-type="CLASS" height="436px" preserveAspectRatio="none" style="width:667px;height:436px;background:#FFFFFF;" version="1.1" viewBox="0 0 667 436" width="667px" zoomAndPan="magnify"><defs/><g><!--cluster Patrones Temporales y Estructurales--><g class="cluster" data-qualified-name="Patrones Temporales y Estructurales" data-source-line="1" id="ent0002"><path d="M8.5,6 L301.6133,6 A3.75,3.75 0 0 1 304.1133,8.5 L311.1133,28.2969 L657.5,28.2969 A2.5,2.5 0 0 1 660,30.7969 L660,426.55 A2.5,2.5 0 0 1 657.5,429.05 L8.5,429.05 A2.5,2.5 0 0 1 6,426.55 L6,8.5 A2.5,2.5 0 0 1 8.5,6" fill="none" style="stroke:#000000;stroke-width:1.5;"/><line style="stroke:#000000;stroke-width:1.5;" x1="6" x2="311.1133" y1="28.2969" y2="28.2969"/><text fill="#000000" font-family="sans-serif" font-size="14" font-weight="bold" lengthAdjust="spacing" textLength="292.1133" x="10" y="20.9951">Patrones Temporales y Estructurales</text></g><!--class Secuencial--><g class="entity" data-qualified-name="Patrones Temporales y Estructurales.Secuencial" data-source-line="3" id="ent0003"><rect fill="#F1F1F1" height="80.5938" rx="2.5" ry="2.5" style="stroke:#181818;stroke-width:0.5;" width="173.082" x="470.46" y="49.15"/><ellipse cx="514.9449" cy="65.15" fill="#ADD1B2" rx="11" ry="11" style="stroke:#181818;stroke-width:1;"/><path d="M517.9136,70.7906 Q517.3355,71.0875 516.6949,71.2281 Q516.0542,71.3844 515.3511,71.3844 Q512.8511,71.3844 511.523,69.7438 Q510.2105,68.0875 510.2105,64.9625 Q510.2105,61.8375 511.523,60.1813 Q512.8511,58.525 515.3511,58.525 Q516.0542,58.525 516.6949,58.6813 Q517.3511,58.8375 517.9136,59.1344 L517.9136,61.8531 Q517.2886,61.275 516.6949,61.0094 Q516.1011,60.7281 515.4761,60.7281 Q514.1324,60.7281 513.4449,61.8063 Q512.7574,62.8688 512.7574,64.9625 Q512.7574,67.0563 513.4449,68.1344 Q514.1324,69.1969 515.4761,69.1969 Q516.1011,69.1969 516.6949,68.9313 Q517.2886,68.65 517.9136,68.0719 L517.9136,70.7906 Z " fill="#000000"/><text fill="#000000" font-family="sans-serif" font-size="14" lengthAdjust="spacing" textLength="75.6123" x="535.4449" y="69.9967">Secuencial</text><line style="stroke:#181818;stroke-width:0.5;" x1="471.46" x2="642.542" y1="81.15" y2="81.15"/><g data-visibility-modifier="PUBLIC_FIELD"><ellipse cx="481.46" cy="94.7984" fill="none" rx="3" ry="3" style="stroke:#038048;stroke-width:1;"/></g><text fill="#000000" font-family="sans-serif" font-size="14" lengthAdjust="spacing" textLength="134.9346" x="490.46" y="98.1451">orden determinado</text><g data-visibility-modifier="PUBLIC_FIELD"><ellipse cx="481.46" cy="111.0953" fill="none" rx="3" ry="3" style="stroke:#038048;stroke-width:1;"/></g><text fill="#000000" font-family="sans-serif" font-size="14" lengthAdjust="spacing" textLength="147.082" x="490.46" y="114.442">no implica repetici&#243;n</text><line style="stroke:#181818;stroke-width:0.5;" x1="471.46" x2="642.542" y1="121.7438" y2="121.7438"/></g><!--class Recurrente--><g class="entity" data-qualified-name="Patrones Temporales y Estructurales.Recurrente" data-source-line="8" id="ent0004"><rect fill="#F1F1F1" height="96.8906" rx="2.5" ry="2.5" style="stroke:#181818;stroke-width:0.5;" width="170.751" x="253.62" y="214.89"/><ellipse cx="295.9527" cy="230.89" fill="#ADD1B2" rx="11" ry="11" style="stroke:#181818;stroke-width:1;"/><path d="M298.9214,236.5306 Q298.3433,236.8275 297.7027,236.9681 Q297.062,237.1244 296.3589,237.1244 Q293.8589,237.1244 292.5308,235.4838 Q291.2183,233.8275 291.2183,230.7025 Q291.2183,227.5775 292.5308,225.9213 Q293.8589,224.265 296.3589,224.265 Q297.062,224.265 297.7027,224.4213 Q298.3589,224.5775 298.9214,224.8744 L298.9214,227.5931 Q298.2964,227.015 297.7027,226.7494 Q297.1089,226.4681 296.4839,226.4681 Q295.1402,226.4681 294.4527,227.5463 Q293.7652,228.6088 293.7652,230.7025 Q293.7652,232.7963 294.4527,233.8744 Q295.1402,234.9369 296.4839,234.9369 Q297.1089,234.9369 297.7027,234.6713 Q298.2964,234.39 298.9214,233.8119 L298.9214,236.5306 Z " fill="#000000"/><text fill="#000000" font-family="sans-serif" font-size="14" lengthAdjust="spacing" textLength="78.0117" x="316.0266" y="235.7367">Recurrente</text><line style="stroke:#181818;stroke-width:0.5;" x1="254.62" x2="423.371" y1="246.89" y2="246.89"/><g data-visibility-modifier="PUBLIC_FIELD"><ellipse cx="264.62" cy="260.5384" fill="none" rx="3" ry="3" style="stroke:#038048;stroke-width:1;"/></g><text fill="#000000" font-family="sans-serif" font-size="14" lengthAdjust="spacing" textLength="144.751" x="273.62" y="263.8851">reaparici&#243;n eventual</text><g data-visibility-modifier="PUBLIC_FIELD"><ellipse cx="264.62" cy="276.8353" fill="none" rx="3" ry="3" style="stroke:#038048;stroke-width:1;"/></g><text fill="#000000" font-family="sans-serif" font-size="14" lengthAdjust="spacing" textLength="137.457" x="273.62" y="280.182">intervalos variables</text><g data-visibility-modifier="PUBLIC_FIELD"><ellipse cx="264.62" cy="293.1322" fill="none" rx="3" ry="3" style="stroke:#038048;stroke-width:1;"/></g><text fill="#000000" font-family="sans-serif" font-size="14" lengthAdjust="spacing" textLength="130.0264" x="273.62" y="296.4789">sin consecutividad</text><line style="stroke:#181818;stroke-width:0.5;" x1="254.62" x2="423.371" y1="303.7806" y2="303.7806"/></g><!--class Iterativo--><g class="entity" data-qualified-name="Patrones Temporales y Estructurales.Iterativo" data-source-line="14" id="ent0005"><rect fill="#F1F1F1" height="96.8906" rx="2.5" ry="2.5" style="stroke:#181818;stroke-width:0.5;" width="184.5801" x="459.71" y="214.89"/><ellipse cx="518.3521" cy="230.89" fill="#ADD1B2" rx="11" ry="11" style="stroke:#181818;stroke-width:1;"/><path d="M521.3208,236.5306 Q520.7427,236.8275 520.1021,236.9681 Q519.4615,237.1244 518.7583,237.1244 Q516.2583,237.1244 514.9302,235.4838 Q513.6177,233.8275 513.6177,230.7025 Q513.6177,227.5775 514.9302,225.9213 Q516.2583,224.265 518.7583,224.265 Q519.4615,224.265 520.1021,224.4213 Q520.7583,224.5775 521.3208,224.8744 L521.3208,227.5931 Q520.6958,227.015 520.1021,226.7494 Q519.5083,226.4681 518.8833,226.4681 Q517.5396,226.4681 516.8521,227.5463 Q516.1646,228.6088 516.1646,230.7025 Q516.1646,232.7963 516.8521,233.8744 Q517.5396,234.9369 518.8833,234.9369 Q519.5083,234.9369 520.1021,234.6713 Q520.6958,234.39 521.3208,233.8119 L521.3208,236.5306 Z " fill="#000000"/><text fill="#000000" font-family="sans-serif" font-size="14" lengthAdjust="spacing" textLength="58.7959" x="538.8521" y="235.7367">Iterativo</text><line style="stroke:#181818;stroke-width:0.5;" x1="460.71" x2="643.2901" y1="246.89" y2="246.89"/><g data-visibility-modifier="PUBLIC_FIELD"><ellipse cx="470.71" cy="260.5384" fill="none" rx="3" ry="3" style="stroke:#038048;stroke-width:1;"/></g><text fill="#000000" font-family="sans-serif" font-size="14" lengthAdjust="spacing" textLength="158.5801" x="479.71" y="263.8851">repetici&#243;n consecutiva</text><g data-visibility-modifier="PUBLIC_FIELD"><ellipse cx="470.71" cy="276.8353" fill="none" rx="3" ry="3" style="stroke:#038048;stroke-width:1;"/></g><text fill="#000000" font-family="sans-serif" font-size="14" lengthAdjust="spacing" textLength="112.1641" x="479.71" y="280.182">periodicidad fija</text><g data-visibility-modifier="PUBLIC_FIELD"><ellipse cx="470.71" cy="293.1322" fill="none" rx="3" ry="3" style="stroke:#038048;stroke-width:1;"/></g><text fill="#000000" font-family="sans-serif" font-size="14" lengthAdjust="spacing" textLength="151.7783" x="479.71" y="296.4789">ciclos independientes</text><line style="stroke:#181818;stroke-width:0.5;" x1="460.71" x2="643.2901" y1="303.7806" y2="303.7806"/></g><!--class Recursivo--><g class="entity" data-qualified-name="Patrones Temporales y Estructurales.Recursivo" data-source-line="20" id="ent0006"><rect fill="#F1F1F1" height="96.8906" rx="2.5" ry="2.5" style="stroke:#181818;stroke-width:0.5;" width="215.4033" x="22.3" y="41"/><ellipse cx="91.4011" cy="57" fill="#ADD1B2" rx="11" ry="11" style="stroke:#181818;stroke-width:1;"/><path d="M94.3698,62.6406 Q93.7917,62.9375 93.1511,63.0781 Q92.5104,63.2344 91.8073,63.2344 Q89.3073,63.2344 87.9792,61.5938 Q86.6667,59.9375 86.6667,56.8125 Q86.6667,53.6875 87.9792,52.0313 Q89.3073,50.375 91.8073,50.375 Q92.5104,50.375 93.1511,50.5313 Q93.8073,50.6875 94.3698,50.9844 L94.3698,53.7031 Q93.7448,53.125 93.1511,52.8594 Q92.5573,52.5781 91.9323,52.5781 Q90.5886,52.5781 89.9011,53.6563 Q89.2136,54.7188 89.2136,56.8125 Q89.2136,58.9063 89.9011,59.9844 Q90.5886,61.0469 91.9323,61.0469 Q92.5573,61.0469 93.1511,60.7813 Q93.7448,60.5 94.3698,59.9219 L94.3698,62.6406 Z " fill="#000000"/><text fill="#000000" font-family="sans-serif" font-size="14" lengthAdjust="spacing" textLength="68.7012" x="111.9011" y="61.8467">Recursivo</text><line style="stroke:#181818;stroke-width:0.5;" x1="23.3" x2="236.7033" y1="73" y2="73"/><g data-visibility-modifier="PUBLIC_FIELD"><ellipse cx="33.3" cy="86.6484" fill="none" rx="3" ry="3" style="stroke:#038048;stroke-width:1;"/></g><text fill="#000000" font-family="sans-serif" font-size="14" lengthAdjust="spacing" textLength="189.4033" x="42.3" y="89.9951">autocontenci&#243;n estructural</text><g data-visibility-modifier="PUBLIC_FIELD"><ellipse cx="33.3" cy="102.9453" fill="none" rx="3" ry="3" style="stroke:#038048;stroke-width:1;"/></g><text fill="#000000" font-family="sans-serif" font-size="14" lengthAdjust="spacing" textLength="91.2461" x="42.3" y="106.292">autosimilitud</text><g data-visibility-modifier="PUBLIC_FIELD"><ellipse cx="33.3" cy="119.2422" fill="none" rx="3" ry="3" style="stroke:#038048;stroke-width:1;"/></g><text fill="#000000" font-family="sans-serif" font-size="14" lengthAdjust="spacing" textLength="137.6211" x="42.3" y="122.5889">ortogonal al tiempo</text><line style="stroke:#181818;stroke-width:0.5;" x1="23.3" x2="236.7033" y1="129.8906" y2="129.8906"/></g><g class="entity" data-qualified-name="Patrones Temporales y Estructurales.GMN9" data-source-line="30" id="ent0010"><path d="M272.79,69.32 L272.79,85.45 L238.06,89.45 L272.79,93.45 L272.79,109.5856 A0,0 0 0 0 272.79,109.5856 L435.2031,109.5856 A0,0 0 0 0 435.2031,109.5856 L435.2031,79.32 L425.2031,69.32 L272.79,69.32 A0,0 0 0 0 272.79,69.32" fill="#FEFFDD" style="stroke:#181818;stroke-width:0.5;"/><path d="M425.2031,69.32 L425.2031,79.32 L435.2031,79.32 L425.2031,69.32" fill="#FEFFDD" style="stroke:#181818;stroke-width:0.5;"/><text fill="#000000" font-family="sans-serif" font-size="13" lengthAdjust="spacing" textLength="139.9849" x="278.79" y="86.3869">Dimensi&#243;n ortogonal:</text><text fill="#000000" font-family="sans-serif" font-size="13" lengthAdjust="spacing" textLength="141.4131" x="278.79" y="101.5197">estructura, no tiempo</text></g><g class="entity" data-qualified-name="Patrones Temporales y Estructurales.GMN12" data-source-line="35" id="ent0013"><path d="M462.34,372.78 L462.34,413.0456 A0,0 0 0 0 462.34,413.0456 L641.6505,413.0456 A0,0 0 0 0 641.6505,413.0456 L641.6505,382.78 L631.6505,372.78 L556,372.78 L552,312.21 L548,372.78 L462.34,372.78 A0,0 0 0 0 462.34,372.78" fill="#FEFFDD" style="stroke:#181818;stroke-width:0.5;"/><path d="M631.6505,372.78 L631.6505,382.78 L641.6505,382.78 L631.6505,372.78" fill="#FEFFDD" style="stroke:#181818;stroke-width:0.5;"/><text fill="#000000" font-family="sans-serif" font-size="13" lengthAdjust="spacing" textLength="158.3105" x="468.34" y="389.8469">Secuencial + Repetici&#243;n</text><text fill="#000000" font-family="sans-serif" font-size="13" lengthAdjust="spacing" textLength="114.937" x="468.34" y="404.9797">+ Consecutividad</text></g><g class="entity" data-qualified-name="Patrones Temporales y Estructurales.GMN15" data-source-line="40" id="ent0016"><path d="M258.29,372.78 L258.29,413.0456 A0,0 0 0 0 258.29,413.0456 L419.7065,413.0456 A0,0 0 0 0 419.7065,413.0456 L419.7065,382.78 L409.7065,372.78 L343,372.78 L339,312.21 L335,372.78 L258.29,372.78 A0,0 0 0 0 258.29,372.78" fill="#FEFFDD" style="stroke:#181818;stroke-width:0.5;"/><path d="M409.7065,372.78 L409.7065,382.78 L419.7065,382.78 L409.7065,372.78" fill="#FEFFDD" style="stroke:#181818;stroke-width:0.5;"/><text fill="#000000" font-family="sans-serif" font-size="13" lengthAdjust="spacing" textLength="140.4165" x="264.29" y="389.8469">Puede o no mantener</text><text fill="#000000" font-family="sans-serif" font-size="13" lengthAdjust="spacing" textLength="110.6523" x="264.29" y="404.9797">orden secuencial</text></g><!--reverse link Secuencial to Iterativo--><g class="link" data-entity-1="ent0003" data-entity-2="ent0005" data-link-type="extension" data-source-line="26" id="lnk7"><path codeLine="26" d="M555.3284,147.8724 C554.5984,173.0524 554.17,187.85 553.39,214.51" fill="none" id="Secuencial-backto-Iterativo" style="stroke:#181818;stroke-width:1;"/><polygon fill="none" points="555.85,129.88,549.3309,147.6986,561.3259,148.0463,555.85,129.88" style="stroke:#181818;stroke-width:1;"/><text fill="#000000" font-family="sans-serif" font-size="13" lengthAdjust="spacing" textLength="54.7866" x="555" y="180.9569">requiere</text></g><!--reverse link Secuencial to Recurrente--><g class="link" data-entity-1="ent0003" data-entity-2="ent0004" data-link-type="dependency" data-source-line="27" id="lnk8"><path codeLine="27" d="M501.9981,133.8146 C470.0581,158.9946 433.25,188.02 399.51,214.63" fill="none" id="Secuencial-backto-Recurrente" style="stroke:#181818;stroke-width:1;stroke-dasharray:7,7;"/><polygon fill="#181818" points="506.71,130.1,497.1658,132.5307,502.7834,133.1955,502.1186,138.8132,506.71,130.1" style="stroke:#181818;stroke-width:1;"/><text fill="#000000" font-family="sans-serif" font-size="13" lengthAdjust="spacing" textLength="79.5488" x="455" y="180.9569">puede tener</text></g><?plantuml-src VL9BJWCn3Drp2glRqXwWOWSis5N01Tp4BOQPEEGp4eAUYYDmCPnqEXDL22cB6J_xVPnuD6zu85XiCGLn5E6PUYy1E_tyWFkOGZOfr_y5V5u1w34TnWXFP38vmzZLEi0I95XoO2bHwDcXbR7k1BZt7Hk4G9uI6_xvTWeUMy979Go1NAA9C11w3ATse46nZDs8iJQ60Jk9C6WFxjJY24LsOCH59Kmyi4LxgVMWiwYOD5AJiMOMHzHJOB4AAnVi-VLSDsoA0NPMnvtbuZx-6IosOfYJg4Wg-wlHvZqt7P5xxZXbEwqtoK6SBbnFud9HirHp7JTVgrMJSAFPtZDJe8kszRhT-GPy9akWfYYSE9reFV3X9O7ivnZLpXttv69rF_dQL6GESrrkVZAg-wcC3VTEKfA-a4zsAqNZSgcwxPCfYxYzlDj_gUUCTNnRKqgnrgCxfuNnySP9kQKz_W80?></g></svg>