<?xml version="1.0" encoding="us-ascii" standalone="no"?><svg xmlns="http://www.w3.org/2000/svg" xmlns:xlink="http://www.w3.org/1999/xlink" contentStyleType="text/css" height="1118px" preserveAspectRatio="none" style="width:483px;height:1118px;background:#FFFFFF;" version="1.1" viewBox="0 0 483 1118" width="483px" zoomAndPan="magnify"><defs/><g><!--cluster algoritmo--><g id="cluster_algoritmo"><path d="M8.5,6.602 L13.5,6.602 A3.75,3.75 0 0 1 16,9.102 L23,31.6699 L473.5,31.6699 A2.5,2.5 0 0 1 476,34.1699 L476,1109.102 A2.5,2.5 0 0 1 473.5,1111.602 L8.5,1111.602 A2.5,2.5 0 0 1 6,1109.102 L6,9.102 A2.5,2.5 0 0 1 8.5,6.602 " fill="none" style="stroke:#000000;stroke-width:1.5;"/><line style="stroke:#000000;stroke-width:1.5;" x1="6" x2="23" y1="31.6699" y2="31.6699"/><text fill="#000000" font-family="sans-serif" font-size="14" font-weight="bold" lengthAdjust="spacing" textLength="4" x="10" y="23.5679">&#160;</text></g><!--cluster contexto4--><g id="cluster_contexto4"><path d="M92.5,738.602 L97.5,738.602 A3.75,3.75 0 0 1 100,741.102 L107,763.6699 L414.5,763.6699 A2.5,2.5 0 0 1 417,766.1699 L417,878.102 A2.5,2.5 0 0 1 414.5,880.602 L92.5,880.602 A2.5,2.5 0 0 1 90,878.102 L90,741.102 A2.5,2.5 0 0 1 92.5,738.602 " fill="none" style="stroke:#000000;stroke-width:1.5;"/><line style="stroke:#000000;stroke-width:1.5;" x1="90" x2="107" y1="763.6699" y2="763.6699"/><text fill="#000000" font-family="sans-serif" font-size="14" font-weight="bold" lengthAdjust="spacing" textLength="4" x="94" y="755.5679">&#160;</text></g><!--cluster contexto3--><g id="cluster_contexto3"><path d="M75.5,545.602 L80.5,545.602 A3.75,3.75 0 0 1 83,548.102 L90,570.6699 L421.5,570.6699 A2.5,2.5 0 0 1 424,573.1699 L424,685.102 A2.5,2.5 0 0 1 421.5,687.602 L75.5,687.602 A2.5,2.5 0 0 1 73,685.102 L73,548.102 A2.5,2.5 0 0 1 75.5,545.602 " fill="none" style="stroke:#000000;stroke-width:1.5;"/><line style="stroke:#000000;stroke-width:1.5;" x1="73" x2="90" y1="570.6699" y2="570.6699"/><text fill="#000000" font-family="sans-serif" font-size="14" font-weight="bold" lengthAdjust="spacing" textLength="4" x="77" y="562.5679">&#160;</text></g><!--cluster contexto2--><g id="cluster_contexto2"><path d="M52.5,352.602 L57.5,352.602 A3.75,3.75 0 0 1 60,355.102 L67,377.6699 L437.5,377.6699 A2.5,2.5 0 0 1 440,380.1699 L440,492.102 A2.5,2.5 0 0 1 437.5,494.602 L52.5,494.602 A2.5,2.5 0 0 1 50,492.102 L50,355.102 A2.5,2.5 0 0 1 52.5,352.602 " fill="none" style="stroke:#000000;stroke-width:1.5;"/><line style="stroke:#000000;stroke-width:1.5;" x1="50" x2="67" y1="377.6699" y2="377.6699"/><text fill="#000000" font-family="sans-serif" font-size="14" font-weight="bold" lengthAdjust="spacing" textLength="4" x="54" y="369.5679">&#160;</text></g><!--cluster contexto--><g id="cluster_contexto"><path d="M32.5,159.602 L37.5,159.602 A3.75,3.75 0 0 1 40,162.102 L47,184.6699 L449.5,184.6699 A2.5,2.5 0 0 1 452,187.1699 L452,299.102 A2.5,2.5 0 0 1 449.5,301.602 L32.5,301.602 A2.5,2.5 0 0 1 30,299.102 L30,162.102 A2.5,2.5 0 0 1 32.5,159.602 " fill="none" style="stroke:#000000;stroke-width:1.5;"/><line style="stroke:#000000;stroke-width:1.5;" x1="30" x2="47" y1="184.6699" y2="184.6699"/><text fill="#000000" font-family="sans-serif" font-size="14" font-weight="bold" lengthAdjust="spacing" textLength="4" x="34" y="176.5679">&#160;</text></g><g id="elem_sum0call"><rect fill="#F1F1F1" height="39.0679" style="stroke:#181818;stroke-width:0.5;" width="80" x="87" y="50.102"/><text fill="#000000" font-family="sans-serif" font-size="14" lengthAdjust="spacing" textLength="66" x="94" y="67.0679">[5, 2, 4, 8]</text><line style="stroke:#181818;stroke-width:0.5;" x1="88" x2="166" y1="73.1699" y2="73.1699"/></g><g id="elem_sum1return"><rect fill="#F1F1F1" height="50.1358" style="stroke:#181818;stroke-width:0.5;" width="201" x="243.5" y="44.602"/><text fill="#000000" font-family="sans-serif" font-size="14" lengthAdjust="spacing" textLength="187" x="250.5" y="61.5679">sum([5, 2, 4, 8]) -&gt; return 19</text><line style="stroke:#181818;stroke-width:0.5;" x1="244.5" x2="443.5" y1="67.6699" y2="67.6699"/><text fill="#000000" font-family="sans-serif" font-size="14" lengthAdjust="spacing" textLength="75" x="249.5" y="86.6358">return = 19</text></g><g id="elem_sum5call"><rect fill="#F1F1F1" height="88.2717" style="stroke:#181818;stroke-width:0.5;" width="105" x="194.5" y="1007.602"/><text fill="#000000" font-family="sans-serif" font-size="14" lengthAdjust="spacing" textLength="91" x="201.5" y="1024.5679">sum([]) -&gt; call</text><line style="stroke:#181818;stroke-width:0.5;" x1="195.5" x2="298.5" y1="1030.6699" y2="1030.6699"/><text fill="#000000" font-family="sans-serif" font-size="14" lengthAdjust="spacing" textLength="87" x="200.5" y="1049.6358">numbers = []</text><text fill="#000000" font-family="sans-serif" font-size="14" lengthAdjust="spacing" textLength="76" x="200.5" y="1068.7038">head = null</text><text fill="#000000" font-family="sans-serif" font-size="14" lengthAdjust="spacing" textLength="47" x="200.5" y="1087.7717">tail = []</text></g><g id="elem_sum5return"><rect fill="#F1F1F1" height="50.1358" style="stroke:#181818;stroke-width:0.5;" width="137" x="263.5" y="795.602"/><text fill="#000000" font-family="sans-serif" font-size="14" lengthAdjust="spacing" textLength="123" x="270.5" y="812.5679">sum([]) -&gt; return 0</text><line style="stroke:#181818;stroke-width:0.5;" x1="264.5" x2="399.5" y1="818.6699" y2="818.6699"/><text fill="#000000" font-family="sans-serif" font-size="14" lengthAdjust="spacing" textLength="67" x="269.5" y="837.6358">return = 0</text></g><g id="elem_sum4call"><rect fill="#F1F1F1" height="88.2717" style="stroke:#181818;stroke-width:0.5;" width="113" x="106.5" y="776.602"/><text fill="#000000" font-family="sans-serif" font-size="14" lengthAdjust="spacing" textLength="99" x="113.5" y="793.5679">sum([8]) -&gt; call</text><line style="stroke:#181818;stroke-width:0.5;" x1="107.5" x2="218.5" y1="799.6699" y2="799.6699"/><text fill="#000000" font-family="sans-serif" font-size="14" lengthAdjust="spacing" textLength="95" x="112.5" y="818.6358">numbers = [8]</text><text fill="#000000" font-family="sans-serif" font-size="14" lengthAdjust="spacing" textLength="58" x="112.5" y="837.7038">head = 8</text><text fill="#000000" font-family="sans-serif" font-size="14" lengthAdjust="spacing" textLength="47" x="112.5" y="856.7717">tail = []</text></g><g id="elem_sum3call"><rect fill="#F1F1F1" height="88.2717" style="stroke:#181818;stroke-width:0.5;" width="129" x="89.5" y="583.602"/><text fill="#000000" font-family="sans-serif" font-size="14" lengthAdjust="spacing" textLength="115" x="96.5" y="600.5679">sum([4, 8]) -&gt; call</text><line style="stroke:#181818;stroke-width:0.5;" x1="90.5" x2="217.5" y1="606.6699" y2="606.6699"/><text fill="#000000" font-family="sans-serif" font-size="14" lengthAdjust="spacing" textLength="111" x="95.5" y="625.6358">numbers = [4, 8]</text><text fill="#000000" font-family="sans-serif" font-size="14" lengthAdjust="spacing" textLength="58" x="95.5" y="644.7038">head = 4</text><text fill="#000000" font-family="sans-serif" font-size="14" lengthAdjust="spacing" textLength="55" x="95.5" y="663.7717">tail = [8]</text></g><g id="elem_sum4return"><rect fill="#F1F1F1" height="50.1358" style="stroke:#181818;stroke-width:0.5;" width="145" x="262.5" y="602.602"/><text fill="#000000" font-family="sans-serif" font-size="14" lengthAdjust="spacing" textLength="131" x="269.5" y="619.5679">sum([8]) -&gt; return 8</text><line style="stroke:#181818;stroke-width:0.5;" x1="263.5" x2="406.5" y1="625.6699" y2="625.6699"/><text fill="#000000" font-family="sans-serif" font-size="14" lengthAdjust="spacing" textLength="67" x="268.5" y="644.6358">return = 8</text></g><g id="elem_sum2call"><rect fill="#F1F1F1" height="88.2717" style="stroke:#181818;stroke-width:0.5;" width="145" x="66.5" y="390.602"/><text fill="#000000" font-family="sans-serif" font-size="14" lengthAdjust="spacing" textLength="131" x="73.5" y="407.5679">sum([2, 4, 8]) -&gt; call</text><line style="stroke:#181818;stroke-width:0.5;" x1="67.5" x2="210.5" y1="413.6699" y2="413.6699"/><text fill="#000000" font-family="sans-serif" font-size="14" lengthAdjust="spacing" textLength="127" x="72.5" y="432.6358">numbers = [2, 4, 8]</text><text fill="#000000" font-family="sans-serif" font-size="14" lengthAdjust="spacing" textLength="58" x="72.5" y="451.7038">head = 2</text><text fill="#000000" font-family="sans-serif" font-size="14" lengthAdjust="spacing" textLength="71" x="72.5" y="470.7717">tail = [4, 8]</text></g><g id="elem_sum3return"><rect fill="#F1F1F1" height="50.1358" style="stroke:#181818;stroke-width:0.5;" width="169" x="255.5" y="409.602"/><text fill="#000000" font-family="sans-serif" font-size="14" lengthAdjust="spacing" textLength="155" x="262.5" y="426.5679">sum([4, 8]) -&gt; return 12</text><line style="stroke:#181818;stroke-width:0.5;" x1="256.5" x2="423.5" y1="432.6699" y2="432.6699"/><text fill="#000000" font-family="sans-serif" font-size="14" lengthAdjust="spacing" textLength="75" x="261.5" y="451.6358">return = 12</text></g><g id="elem_sum1call"><rect fill="#F1F1F1" height="88.2717" style="stroke:#181818;stroke-width:0.5;" width="161" x="46.5" y="197.602"/><text fill="#000000" font-family="sans-serif" font-size="14" lengthAdjust="spacing" textLength="147" x="53.5" y="214.5679">sum([5, 2, 4, 8]) -&gt; call</text><line style="stroke:#181818;stroke-width:0.5;" x1="47.5" x2="206.5" y1="220.6699" y2="220.6699"/><text fill="#000000" font-family="sans-serif" font-size="14" lengthAdjust="spacing" textLength="143" x="52.5" y="239.6358">numbers = [5, 2, 4, 8]</text><text fill="#000000" font-family="sans-serif" font-size="14" lengthAdjust="spacing" textLength="58" x="52.5" y="258.7038">head = 5</text><text fill="#000000" font-family="sans-serif" font-size="14" lengthAdjust="spacing" textLength="87" x="52.5" y="277.7717">tail = [2, 4, 8]</text></g><g id="elem_sum2return"><rect fill="#F1F1F1" height="50.1358" style="stroke:#181818;stroke-width:0.5;" width="185" x="251.5" y="216.602"/><text fill="#000000" font-family="sans-serif" font-size="14" lengthAdjust="spacing" textLength="171" x="258.5" y="233.5679">sum([2, 4, 8]) -&gt; return 14</text><line style="stroke:#181818;stroke-width:0.5;" x1="252.5" x2="435.5" y1="239.6699" y2="239.6699"/><text fill="#000000" font-family="sans-serif" font-size="14" lengthAdjust="spacing" textLength="75" x="257.5" y="258.6358">return = 14</text></g><!--link sum0call to sum1call--><g id="link_sum0call_sum1call"><path codeLine="65" d="M127,89.122 C127,114.932 127,156.502 127,191.472 " fill="none" id="sum0call-to-sum1call" style="stroke:#181818;stroke-width:1.0;"/><polygon fill="#181818" points="127,197.472,131,188.472,127,192.472,123,188.472,127,197.472" style="stroke:#181818;stroke-width:1.0;"/><text fill="#000000" font-family="sans-serif" font-size="13" lengthAdjust="spacing" textLength="19" x="128" y="139.499">call</text></g><!--link sum1call to sum2call--><g id="link_sum1call_sum2call"><path codeLine="66" d="M129.72,285.942 C131.69,317.202 133.9541,353.2238 135.9141,384.4438 " fill="none" id="sum1call-to-sum2call" style="stroke:#181818;stroke-width:1.0;"/><polygon fill="#181818" points="136.29,390.432,139.7182,381.199,135.9767,385.4418,131.7339,381.7003,136.29,390.432" style="stroke:#181818;stroke-width:1.0;"/><text fill="#000000" font-family="sans-serif" font-size="13" lengthAdjust="spacing" textLength="19" x="133" y="332.499">call</text></g><!--link sum2call to sum3call--><g id="link_sum2call_sum3call"><path codeLine="67" d="M142.4,478.942 C144.86,510.202 147.6906,546.2304 150.1406,577.4504 " fill="none" id="sum2call-to-sum3call" style="stroke:#181818;stroke-width:1.0;"/><polygon fill="#181818" points="150.61,583.432,153.8936,574.1466,150.2188,578.4473,145.9181,574.7725,150.61,583.432" style="stroke:#181818;stroke-width:1.0;"/><text fill="#000000" font-family="sans-serif" font-size="13" lengthAdjust="spacing" textLength="19" x="147" y="525.499">call</text></g><!--link sum3call to sum4call--><g id="link_sum3call_sum4call"><path codeLine="68" d="M156.04,671.942 C157.52,703.202 159.2059,739.2187 160.6859,770.4387 " fill="none" id="sum3call-to-sum4call" style="stroke:#181818;stroke-width:1.0;"/><polygon fill="#181818" points="160.97,776.432,164.5393,767.2527,160.7332,771.4376,156.5483,767.6315,160.97,776.432" style="stroke:#181818;stroke-width:1.0;"/><text fill="#000000" font-family="sans-serif" font-size="13" lengthAdjust="spacing" textLength="19" x="159" y="718.499">call</text></g><!--link sum4call to sum5call--><g id="link_sum4call_sum5call"><path codeLine="69" d="M178.8,864.672 C193.77,905.492 214.0627,960.8294 229.0627,1001.6994 " fill="none" id="sum4call-to-sum5call" style="stroke:#181818;stroke-width:1.0;"/><polygon fill="#181818" points="231.13,1007.332,231.7842,997.5049,229.4073,1002.6381,224.274,1000.2612,231.13,1007.332" style="stroke:#181818;stroke-width:1.0;"/><text fill="#000000" font-family="sans-serif" font-size="13" lengthAdjust="spacing" textLength="19" x="209" y="942.499">call</text></g><!--reverse link sum5return to sum5call--><g id="link_sum5return_sum5call"><path codeLine="71" d="M320.9732,851.2974 C306.7432,889.6574 280.8,959.552 263.03,1007.422 " fill="none" id="sum5return-backto-sum5call" style="stroke:#181818;stroke-width:1.0;"/><polygon fill="#181818" points="323.06,845.672,316.1795,852.7189,321.321,850.3598,323.6801,855.5013,323.06,845.672" style="stroke:#181818;stroke-width:1.0;"/><text fill="#000000" font-family="sans-serif" font-size="13" lengthAdjust="spacing" textLength="48" x="293" y="942.499">return 0</text></g><!--reverse link sum4return to sum5return--><g id="link_sum4return_sum5return"><path codeLine="72" d="M334.525,658.7912 C333.945,695.4312 332.96,758.602 332.38,795.312 " fill="none" id="sum4return-backto-sum5return" style="stroke:#181818;stroke-width:1.0;"/><polygon fill="#181818" points="334.62,652.792,330.4781,661.7275,334.5409,657.7914,338.477,661.8542,334.62,652.792" style="stroke:#181818;stroke-width:1.0;"/><text fill="#000000" font-family="sans-serif" font-size="13" lengthAdjust="spacing" textLength="48" x="334" y="718.499">return 8</text></g><!--reverse link sum3return to sum4return--><g id="link_sum3return_sum4return"><path codeLine="73" d="M339.2128,465.7899 C338.2528,502.4299 336.6,565.602 335.64,602.312 " fill="none" id="sum3return-backto-sum4return" style="stroke:#181818;stroke-width:1.0;"/><polygon fill="#181818" points="339.37,459.792,335.1356,468.6841,339.239,464.7903,343.1329,468.8937,339.37,459.792" style="stroke:#181818;stroke-width:1.0;"/><text fill="#000000" font-family="sans-serif" font-size="13" lengthAdjust="spacing" textLength="55" x="338" y="525.499">return 12</text></g><!--reverse link sum2return to sum3return--><g id="link_sum2return_sum3return"><path codeLine="74" d="M343.3656,272.7907 C342.6056,309.4307 341.28,372.602 340.51,409.312 " fill="none" id="sum2return-backto-sum3return" style="stroke:#181818;stroke-width:1.0;"/><polygon fill="#181818" points="343.49,266.792,339.3042,275.7071,343.3863,271.7909,347.3025,275.873,343.49,266.792" style="stroke:#181818;stroke-width:1.0;"/><text fill="#000000" font-family="sans-serif" font-size="13" lengthAdjust="spacing" textLength="55" x="343" y="332.499">return 14</text></g><!--reverse link sum1return to sum2return--><g id="link_sum1return_sum2return"><path codeLine="75" d="M344,100.962 C344,133.372 344,184.322 344,216.562 " fill="none" id="sum1return-backto-sum2return" style="stroke:#181818;stroke-width:1.0;"/><polygon fill="#181818" points="344,94.962,340,103.962,344,99.962,348,103.962,344,94.962" style="stroke:#181818;stroke-width:1.0;"/><text fill="#000000" font-family="sans-serif" font-size="13" lengthAdjust="spacing" textLength="55" x="345" y="139.499">return 19</text></g><!--link sum4call to sum5return--><g id="link_sum4call_sum5return"><path codeLine="77" d="M219.74,820.602 C233.74,820.602 242.89,820.602 257.38,820.602 " fill="none" id="sum4call-to-sum5return" style="stroke:#181818;stroke-width:1.0;stroke-dasharray:7.0,7.0;"/><polygon fill="#181818" points="263.38,820.602,254.38,816.602,258.38,820.602,254.38,824.602,263.38,820.602" style="stroke:#181818;stroke-width:1.0;"/><text fill="#000000" font-family="sans-serif" font-size="13" lengthAdjust="spacing" textLength="7" x="238" y="813.499">8</text></g><!--link sum3call to sum4return--><g id="link_sum3call_sum4return"><path codeLine="78" d="M218.58,627.602 C232.79,627.602 241.94,627.602 256.44,627.602 " fill="none" id="sum3call-to-sum4return" style="stroke:#181818;stroke-width:1.0;stroke-dasharray:7.0,7.0;"/><polygon fill="#181818" points="262.44,627.602,253.44,623.602,257.44,627.602,253.44,631.602,262.44,627.602" style="stroke:#181818;stroke-width:1.0;"/><text fill="#000000" font-family="sans-serif" font-size="13" lengthAdjust="spacing" textLength="7" x="237" y="620.499">4</text></g><!--link sum2call to sum3return--><g id="link_sum2call_sum3return"><path codeLine="79" d="M211.57,434.602 C225.73,434.602 234.71,434.602 249.23,434.602 " fill="none" id="sum2call-to-sum3return" style="stroke:#181818;stroke-width:1.0;stroke-dasharray:7.0,7.0;"/><polygon fill="#181818" points="255.23,434.602,246.23,430.602,250.23,434.602,246.23,438.602,255.23,434.602" style="stroke:#181818;stroke-width:1.0;"/><text fill="#000000" font-family="sans-serif" font-size="13" lengthAdjust="spacing" textLength="7" x="230" y="427.499">2</text></g><!--link sum1call to sum2return--><g id="link_sum1call_sum2return"><path codeLine="80" d="M207.8,241.602 C222.02,241.602 230.92,241.602 245.43,241.602 " fill="none" id="sum1call-to-sum2return" style="stroke:#181818;stroke-width:1.0;stroke-dasharray:7.0,7.0;"/><polygon fill="#181818" points="251.43,241.602,242.43,237.602,246.43,241.602,242.43,245.602,251.43,241.602" style="stroke:#181818;stroke-width:1.0;"/><text fill="#000000" font-family="sans-serif" font-size="13" lengthAdjust="spacing" textLength="7" x="226" y="234.499">5</text></g><!--SRC=[bPHHRu8m483V-oikFcs962abGRFjZomyL2JEhO91I9Oi_FSLxTNsgAWyjj_rxhuhFShYH-vAcCr0da2gNTtisqCDVuo1-UhDTrcqCFjCvy3d8EQGvMVwr1sMXLHAmyZsbp0CqSIB6_OAqGSqPTir5SGhF2GsAzTZpCAxXfXpxD4hjgYhjlnjQ-44UeczT4lCbewoUHcNJY_1KqqNG-Duf20MXg_g3fkoEUaJTOItyrNAhLxElCLMxjN0vbJbPEl9hTQljjqwa-awpq6XKaMmr2n_K9LncrbTqnF8dbB0RnZmhfmhWKzBmBYG1nxquEFzlO7WzUTsAjCwOlwK3xXr9UXlw3g9fvqueI4jQL3BAA9d3qmAxGWxhZjs134VUe763QUaOQVPQy6clQfJYeN_KvFCFeJHLkUnFjVdb4Z47i431FU8940a7Y42XF28b1A8NJQYg3ESyRcshwK5pGAIWfAPpKp8X9Bc8ZjRYF8HAgmJWiOZTCLehMyBjLYuWaOrMW8b2rgQ9N1Gd5Pa2HnsobZF_W40]--></g></svg>